# xmcd
#
# Track frame offsets: 
#        150
#        16042
#        34652
#        64922
#        85180
#        98985
#        113622
#        158160
#        170227
#        187220
#        219652
#        258975
#
# Disc length: 3716 seconds
#
# Revision: 2
# Processed by: cddbd v1.5.2PL0 Copyright (c) Steve Scherf et al.
# Submitted via: ExactAudioCopy v1.3
#
DISCID=a10e820c
DTITLE=Stevie Ray Vaughan - So Exited
DYEAR=1993
DGENRE=Blues
TTITLE0=Testify
TTITLE1=So Exited
TTITLE2=Voodoo Chile
TTITLE3=Pride and Joy
TTITLE4=Tell Me
TTITLE5=Mary Had A Little Lamb
TTITLE6=Texas Flood
TTITLE7=Love Struck Baby
TTITLE8=Hug You Squeeze You
TTITLE9=Third Stone From The Sun
TTITLE10=Lenny
TTITLE11=Wham
EXTD=
EXTT0=
EXTT1=
EXTT2=
EXTT3=
EXTT4=
EXTT5=
EXTT6=
EXTT7=
EXTT8=
EXTT9=
EXTT10=
EXTT11=
PLAYORDER=
